<?xml version="1.0" encoding="UTF-8"?>
<svg version="1.1" xmlns="http://www.w3.org/2000/svg" width="64" height="63">
<path d="M0 0 C0.65742187 0.36609375 1.31484375 0.7321875 1.9921875 1.109375 C5.84474812 2.76670297 9.95237644 2.30890281 14.0625 2 C13.94390625 2.61746094 13.8253125 3.23492188 13.703125 3.87109375 C12.79022783 9.86882817 13.21767157 13.61574473 16.0546875 18.9921875 C18.74359859 24.34916542 18.88648442 30.08750061 17.2734375 35.7890625 C15.90697741 39.65896093 14.55446397 43.2119466 12.375 46.703125 C11.941875 47.46109375 11.50875 48.2190625 11.0625 49 C11.82075204 51.0998823 11.82075204 51.0998823 13.0625 53 C13.0625 54.32 13.0625 55.64 13.0625 57 C11.25 57.6875 11.25 57.6875 9.0625 58 C7.3125 56.5625 7.3125 56.5625 6.0625 55 C3.19678479 55.92942115 0.38528356 56.85446152 -2.36328125 58.09375 C-9.74367117 61.25524843 -15.25751285 61.35648141 -22.9375 59 C-24.45917543 58.29501497 -25.96293028 57.54883925 -27.4375 56.75 C-28.5925 56.1725 -29.7475 55.595 -30.9375 55 C-33.03959511 55.80104725 -33.03959511 55.80104725 -34.9375 57 C-36.2617287 57.36784131 -37.59363912 57.71202981 -38.9375 58 C-39.5975 56.68 -40.2575 55.36 -40.9375 54 C-39.9475 53.01 -38.9575 52.02 -37.9375 51 C-38.85242315 48.63644853 -39.7790472 46.31252153 -40.92578125 44.05078125 C-45.28215428 35.22714569 -46.06291866 26.37625598 -42.9375 17 C-42.380625 15.824375 -41.82375 14.64875 -41.25 13.4375 C-39.56630727 9.02782857 -40.05358308 6.58029675 -40.9375 2 C-40.32003906 2.04640625 -39.70257813 2.0928125 -39.06640625 2.140625 C-34.39459762 2.33972796 -31.00575832 2.30026541 -26.875 0 C-19.23392698 -3.81372629 -7.64107302 -3.81372629 0 0 Z " fill="#121824" transform="translate(45.9375,2)"/>
<path d="M0 0 C0.65742187 0.36609375 1.31484375 0.7321875 1.9921875 1.109375 C5.84474812 2.76670297 9.95237644 2.30890281 14.0625 2 C14.17736685 8.2028101 12.69783809 10.88106217 8.5 15.5 C7.03686131 17.01563821 5.56268939 18.52102541 4.0625 20 C0.31268012 18.75006004 -0.80368551 17.2769294 -2.9375 14 C-2.7290954 11.56861295 -2.02324545 10.17149089 -0.9375 8 C-7.56319935 5.05524474 -13.98901713 3.46517644 -21.12890625 5.6796875 C-22.76727815 6.37475437 -24.35963291 7.17676499 -25.9375 8 C-24.9475 9.485 -24.9475 9.485 -23.9375 11 C-24.19440566 14.85358487 -26.49384629 17.1622086 -28.9375 20 C-29.55625 19.67 -30.175 19.34 -30.8125 19 C-32.84768344 17.85806765 -32.84768344 17.85806765 -34.9375 18 C-38.32145303 26.03688845 -37.3511348 33.85398255 -34.9375 42 C-33.9475 42 -32.9575 42 -31.9375 42 C-30.07077856 43.90210952 -28.49635084 45.95927221 -26.8515625 48.0546875 C-23.00332605 51.9657523 -18.87429091 52.3119146 -13.5625 52.375 C-5.70504391 52.22457573 -1.99981859 49.99776347 3.8125 44.8125 C8.38100994 40.00786483 10.17064553 34.51438905 10.3125 27.9375 C10.05700541 23.91346018 9.6325472 19.99033043 9.0625 16 C11.5375 14.515 11.5375 14.515 14.0625 13 C18.49894347 24.88333072 19.33758036 32.19722822 14.0625 44 C13.505625 44.89203125 12.94875 45.7840625 12.375 46.703125 C11.941875 47.46109375 11.50875 48.2190625 11.0625 49 C11.82075204 51.0998823 11.82075204 51.0998823 13.0625 53 C13.0625 54.32 13.0625 55.64 13.0625 57 C11.25 57.6875 11.25 57.6875 9.0625 58 C7.3125 56.5625 7.3125 56.5625 6.0625 55 C3.19678479 55.92942115 0.38528356 56.85446152 -2.36328125 58.09375 C-9.74367117 61.25524843 -15.25751285 61.35648141 -22.9375 59 C-24.45917543 58.29501497 -25.96293028 57.54883925 -27.4375 56.75 C-28.5925 56.1725 -29.7475 55.595 -30.9375 55 C-33.03959511 55.80104725 -33.03959511 55.80104725 -34.9375 57 C-36.2617287 57.36784131 -37.59363912 57.71202981 -38.9375 58 C-39.5975 56.68 -40.2575 55.36 -40.9375 54 C-39.9475 53.01 -38.9575 52.02 -37.9375 51 C-38.85242315 48.63644853 -39.7790472 46.31252153 -40.92578125 44.05078125 C-45.28215428 35.22714569 -46.06291866 26.37625598 -42.9375 17 C-42.380625 15.824375 -41.82375 14.64875 -41.25 13.4375 C-39.56630727 9.02782857 -40.05358308 6.58029675 -40.9375 2 C-40.32003906 2.04640625 -39.70257813 2.0928125 -39.06640625 2.140625 C-34.39459762 2.33972796 -31.00575832 2.30026541 -26.875 0 C-19.23392698 -3.81372629 -7.64107302 -3.81372629 0 0 Z " fill="#B0B1B3" transform="translate(45.9375,2)"/>
<path d="M0 0 C4.65831651 2.58086333 7.96020113 6.06468175 10 11 C10.125 13.75 10.125 13.75 10 16 C7.69 16 5.38 16 3 16 C2.34 17.32 1.68 18.64 1 20 C0.34 19.01 -0.32 18.02 -1 17 C-1.99 17.33 -2.98 17.66 -4 18 C-3.67 18.66 -3.34 19.32 -3 20 C-2.01 19.67 -1.02 19.34 0 19 C0.66 19.66 1.32 20.32 2 21 C2.66 19.68 3.32 18.36 4 17 C5.98 17 7.96 17 10 17 C9.46252091 21.56857227 7.93335989 24.46492526 5 28 C-0.17244094 31.72736875 -4.72663377 32.62733662 -11 32 C-13.5 31 -13.5 31 -15 30 C-15.99 32.475 -15.99 32.475 -17 35 C-19.86724686 34.42655063 -20.8614515 34.1385485 -23 32 C-22.8125 29.9375 -22.8125 29.9375 -22 28 C-21.01 27.67 -20.02 27.34 -19 27 C-19.66 25.906875 -20.32 24.81375 -21 23.6875 C-22.58464929 21.06292462 -23 20.1743622 -23 17 C-21.35 17 -19.7 17 -18 17 C-17.34 18.65 -16.68 20.3 -16 22 C-15.34 20.68 -14.68 19.36 -14 18 C-14.66 18 -15.32 18 -16 18 C-16 17.34 -16 16.68 -16 16 C-18.31 16 -20.62 16 -23 16 C-22.87210139 9.86086689 -20.81786473 7.06399567 -16.69140625 2.6015625 C-12.25351545 -1.60059738 -5.69605598 -0.82416679 0 0 Z " fill="#7D7F82" transform="translate(39,14)"/>
<path d="M0 0 C4.05218427 4.05218427 4.82375497 10.41379475 5.4375 15.9375 C5.1838974 22.17612393 2.58409467 28.46251501 -0.6875 33.703125 C-1.120625 34.46109375 -1.55375 35.2190625 -2 36 C-1.24174796 38.0998823 -1.24174796 38.0998823 0 40 C0 41.32 0 42.64 0 44 C-1.8125 44.6875 -1.8125 44.6875 -4 45 C-5.75 43.5625 -5.75 43.5625 -7 42 C-9.86571521 42.92942115 -12.67721644 43.85446152 -15.42578125 45.09375 C-22.80617117 48.25524843 -28.32001285 48.35648141 -36 46 C-37.52167543 45.29501497 -39.02543028 44.54883925 -40.5 43.75 C-42.2325 42.88375 -42.2325 42.88375 -44 42 C-46.10209511 42.80104725 -46.10209511 42.80104725 -48 44 C-49.3242287 44.36784131 -50.65613912 44.71202981 -52 45 C-52.66 43.68 -53.32 42.36 -54 41 C-51.69 39.02 -49.38 37.04 -47 35 C-47.66 33.68 -48.32 32.36 -49 31 C-48.625 28.75 -48.625 28.75 -48 27 C-48 27.66 -48 28.32 -48 29 C-47.01 29 -46.02 29 -45 29 C-43.13327856 30.90210952 -41.55885084 32.95927221 -39.9140625 35.0546875 C-36.06582605 38.9657523 -31.93679091 39.3119146 -26.625 39.375 C-18.76754391 39.22457573 -15.06231859 36.99776347 -9.25 31.8125 C-4.68149006 27.00786483 -2.89185447 21.51438905 -2.75 14.9375 C-3.00549459 10.91346018 -3.4299528 6.99033043 -4 3 C-2.68 2.01 -1.36 1.02 0 0 Z " fill="#838588" transform="translate(59,15)"/>
<path d="M0 0 C0.53367188 0.28875 1.06734375 0.5775 1.6171875 0.875 C0.9571875 1.865 0.2971875 2.855 -0.3828125 3.875 C0.00229825 6.85960834 1.26345294 9.21746371 2.6171875 11.875 C1.97716797 11.2253125 1.97716797 11.2253125 1.32421875 10.5625 C-3.94812493 5.86630934 -8.3072409 4.93529754 -15.31640625 5.30078125 C-19.18631365 6.02546455 -21.35988015 7.12468911 -24.08203125 9.94140625 C-26.3526509 13.31665168 -27.46467262 16.94011482 -28.3828125 20.875 C-26.0728125 20.875 -23.7628125 20.875 -21.3828125 20.875 C-21.3828125 21.535 -21.3828125 22.195 -21.3828125 22.875 C-20.7228125 22.875 -20.0628125 22.875 -19.3828125 22.875 C-19.0528125 21.885 -18.7228125 20.895 -18.3828125 19.875 C-19.1328125 25.625 -19.1328125 25.625 -21.3828125 27.875 C-21.723125 26.6684375 -21.723125 26.6684375 -22.0703125 25.4375 C-22.5034375 24.591875 -22.9365625 23.74625 -23.3828125 22.875 C-25.93056556 21.98113836 -25.93056556 21.98113836 -28.3828125 21.875 C-28.0940625 22.42929687 -27.8053125 22.98359375 -27.5078125 23.5546875 C-26.9509375 24.64136719 -26.9509375 24.64136719 -26.3828125 25.75 C-26.0115625 26.46929687 -25.6403125 27.18859375 -25.2578125 27.9296875 C-24.3828125 29.875 -24.3828125 29.875 -24.3828125 31.875 C-27.1953125 34.0625 -27.1953125 34.0625 -30.3828125 35.875 C-31.3728125 35.545 -32.3628125 35.215 -33.3828125 34.875 C-36.62733147 28.26579469 -37.72869278 21.65519548 -35.703125 14.4609375 C-35.00177273 12.57062615 -34.20167991 10.71745167 -33.3828125 8.875 C-31.4028125 10.195 -29.4228125 11.515 -27.3828125 12.875 C-26.9496875 11.946875 -26.9496875 11.946875 -26.5078125 11 C-25.3828125 8.875 -25.3828125 8.875 -23.3828125 6.875 C-23.73067958 4.89963255 -23.73067958 4.89963255 -24.3828125 2.875 C-24.3828125 1.885 -24.3828125 0.895 -24.3828125 -0.125 C-15.86040169 -4.5714752 -8.5687785 -4.26956437 0 0 Z " fill="#0C121E" transform="translate(44.3828125,9.125)"/>
<path d="M0 0 C4.65831651 2.58086333 7.96020113 6.06468175 10 11 C10.125 13.75 10.125 13.75 10 16 C7.69 16 5.38 16 3 16 C2.34 17.32 1.68 18.64 1 20 C0.34 19.01 -0.32 18.02 -1 17 C-1.99 17.33 -2.98 17.66 -4 18 C-4 16.02 -4 14.04 -4 12 C-4.66 12 -5.32 12 -6 12 C-6 12.66 -6 13.32 -6 14 C-6.66 14 -7.32 14 -8 14 C-8.66 12.35 -9.32 10.7 -10 9 C-11.99097846 11.98646769 -12.94124926 14.59687262 -14 18 C-14.66 18 -15.32 18 -16 18 C-16 17.34 -16 16.68 -16 16 C-18.31 16 -20.62 16 -23 16 C-22.87210139 9.86086689 -20.81786473 7.06399567 -16.69140625 2.6015625 C-12.25351545 -1.60059738 -5.69605598 -0.82416679 0 0 Z " fill="#F1F1F1" transform="translate(39,14)"/>
<path d="M0 0 C5.58169291 0.93028215 8.84515788 2.3149719 12.3125 6.875 C12.84488281 7.55304687 13.37726562 8.23109375 13.92578125 8.9296875 C15 11 15 11 14.79296875 13.0703125 C14 15 14 15 12 18 C11.38125 17.67 10.7625 17.34 10.125 17 C8.08981656 15.85806765 8.08981656 15.85806765 6 16 C2.48347923 24.35173683 3.572123 33.45746983 6 42 C6.63140949 43.35038672 7.28826555 44.69016937 8 46 C6.68 46.66 5.36 47.32 4 48 C-1.94559035 40.7688766 -4.43353331 33.35003452 -3.9375 23.9375 C-3.37352691 18.92656669 -1.84351511 14.90302998 0.2109375 10.3359375 C1.47206129 6.60251162 0.84396327 3.79783472 0 0 Z " fill="#B4B5B7" transform="translate(5,4)"/>
<path d="M0 0 C0.66 0.33 1.32 0.66 2 1 C1 4 1 4 -1 5 C-0.89300781 6.05058594 -0.78601563 7.10117187 -0.67578125 8.18359375 C0.71157163 23.5931204 0.71157163 23.5931204 -3 30 C-4.484375 31.73046875 -4.484375 31.73046875 -6 33 C-6.66 33 -7.32 33 -8 33 C-8.66 31.68 -9.32 30.36 -10 29 C-10.99 29 -11.98 29 -13 29 C-12.731875 28.484375 -12.46375 27.96875 -12.1875 27.4375 C-10.67650593 24.33598585 -9.34427274 21.17737194 -8 18 C-9.98 18 -11.96 18 -14 18 C-14.66 20.31 -15.32 22.62 -16 25 C-18 22 -18 22 -18 20 C-19.98 20.99 -19.98 20.99 -22 22 C-22 21.01 -22 20.02 -22 19 C-20.68 18.34 -19.36 17.68 -18 17 C-17.34 17.66 -16.68 18.32 -16 19 C-15.67 18.34 -15.34 17.68 -15 17 C-12.69 17 -10.38 17 -8 17 C-8.66 14.03 -9.32 11.06 -10 8 C-8.68 7.67 -7.36 7.34 -6 7 C-4.24399324 5.39255122 -4.24399324 5.39255122 -2.75 3.4375 C-2.22921875 2.79683594 -1.7084375 2.15617188 -1.171875 1.49609375 C-0.78515625 1.00238281 -0.3984375 0.50867187 0 0 Z " fill="#131822" transform="translate(57,13)"/>
<path d="M0 0 C0.53367187 0.28875 1.06734375 0.5775 1.6171875 0.875 C0.6271875 2.36 0.6271875 2.36 -0.3828125 3.875 C0.00229825 6.85960834 1.26345294 9.21746371 2.6171875 11.875 C2.19050781 11.441875 1.76382813 11.00875 1.32421875 10.5625 C-3.95120119 5.86356925 -8.3012864 4.9641719 -15.30859375 5.2734375 C-19.86864473 6.16574735 -22.56400253 8.24813117 -25.3828125 11.875 C-25.7128125 12.535 -26.0428125 13.195 -26.3828125 13.875 C-27.0428125 13.545 -27.7028125 13.215 -28.3828125 12.875 C-27.5371875 11.9675 -26.6915625 11.06 -25.8203125 10.125 C-23.69225053 7.75178556 -23.69225053 7.75178556 -23.5703125 4.6875 C-23.8384375 4.089375 -24.1065625 3.49125 -24.3828125 2.875 C-24.3828125 1.885 -24.3828125 0.895 -24.3828125 -0.125 C-15.86040169 -4.5714752 -8.5687785 -4.26956437 0 0 Z " fill="#181C25" transform="translate(44.3828125,9.125)"/>
<path d="M0 0 C0.11486685 6.2028101 -1.36466191 8.88106217 -5.5625 13.5 C-7.02563869 15.01563821 -8.49981061 16.52102541 -10 18 C-13.74981988 16.75006004 -14.86618551 15.2769294 -17 12 C-17.11465355 8.44573984 -14.73247485 5.92488484 -12.45703125 3.328125 C-8.90235151 0.08793435 -4.61524199 -0.27148482 0 0 Z " fill="#F7F7F7" transform="translate(60,4)"/>
<path d="M0 0 C0.66 0 1.32 0 2 0 C2.33 0.66 2.66 1.32 3 2 C4.92469088 2.39368517 4.92469088 2.39368517 7.1875 2.5 C11.05915606 2.8329131 14.31643053 3.74219579 18 5 C18.66 4.67 19.32 4.34 20 4 C20.33 6.31 20.66 8.62 21 11 C18.69 11 16.38 11 14 11 C13.34 12.32 12.68 13.64 12 15 C11.34 14.01 10.68 13.02 10 12 C9.01 12.33 8.02 12.66 7 13 C7 11.02 7 9.04 7 7 C6.34 7 5.68 7 5 7 C5 7.66 5 8.32 5 9 C4.34 9 3.68 9 3 9 C2.01 6.03 1.02 3.06 0 0 Z " fill="#C8C9CB" transform="translate(28,19)"/>
<path d="M0 0 C4.07220502 4.07220502 5.18727685 10.80286995 5.25 16.4375 C5 20 5 20 4 23 C2.02 23 0.04 23 -2 23 C-2.4513623 19.73297545 -2.85502162 16.46178096 -3.25 13.1875 C-3.37890625 12.25873047 -3.5078125 11.32996094 -3.640625 10.37304688 C-3.74375 9.48037109 -3.846875 8.58769531 -3.953125 7.66796875 C-4.05786133 6.84578857 -4.16259766 6.0236084 -4.27050781 5.17651367 C-4 3 -4 3 -2.00292969 1.20825195 C-1.34196289 0.80952881 -0.68099609 0.41080566 0 0 Z " fill="#B2B4B6" transform="translate(59,15)"/>
<path d="M0 0 C5.58169291 0.93028215 8.84515788 2.3149719 12.3125 6.875 C12.84488281 7.55304687 13.37726562 8.23109375 13.92578125 8.9296875 C15 11 15 11 14.79296875 13.0703125 C14 15 14 15 12 18 C11.01 17.67 10.02 17.34 9 17 C8.5978125 15.8553125 8.5978125 15.8553125 8.1875 14.6875 C7.18170572 11.70690165 7.18170572 11.70690165 3.9375 10.1875 C1 8 1 8 0.38671875 5.97265625 C0.15341208 3.99129067 0.06646489 1.99394684 0 0 Z " fill="#CDCFD0" transform="translate(5,4)"/>
<path d="M0 0 C0.33 1.32 0.66 2.64 1 4 C2.98 4 4.96 4 7 4 C6.73445313 4.58007812 6.46890625 5.16015625 6.1953125 5.7578125 C4.22438666 10.11686745 2.40950748 14.41910068 1 19 C1.99 19.99 2.98 20.98 4 22 C3.34 23.32 2.68 24.64 2 26 C0.125 25.6875 0.125 25.6875 -2 25 C-2.66 24.01 -3.32 23.02 -4 22 C-3.34 21.67 -2.68 21.34 -2 21 C-2.165 20.4225 -2.33 19.845 -2.5 19.25 C-3 17 -3 17 -3 13 C-2.34 12.01 -1.68 11.02 -1 10 C-1.66 9.67 -2.32 9.34 -3 9 C-2.01 6.03 -1.02 3.06 0 0 Z " fill="#7B7D80" transform="translate(56,34)"/>
<path d="M0 0 C2.00720923 0.28674418 4.0085944 0.61866701 6 1 C5.01 4.63 4.02 8.26 3 12 C2.34 12 1.68 12 1 12 C1 11.34 1 10.68 1 10 C-1.31 10 -3.62 10 -6 10 C-5.25 3.25 -5.25 3.25 -3 1 C-2.34 1 -1.68 1 -1 1 C-0.67 0.67 -0.34 0.34 0 0 Z " fill="#CCCDCF" transform="translate(22,20)"/>
<path d="M0 0 C1.65 0 3.3 0 5 0 C5.11486685 6.2028101 3.63533809 8.88106217 -0.5625 13.5 C-2.02563869 15.01563821 -3.49981061 16.52102541 -5 18 C-8 17 -8 17 -9.1875 14.9375 C-9.455625 14.298125 -9.72375 13.65875 -10 13 C-9.34 12.67 -8.68 12.34 -8 12 C-3.79347802 9.19565201 -0.48496185 5.64061771 3 2 C2.01 1.34 1.02 0.68 0 0 Z " fill="#C6C7C9" transform="translate(55,4)"/>
<path d="M0 0 C0.99 0.66 1.98 1.32 3 2 C3.38749213 4.32495277 3.71758117 6.6599583 4 9 C4.95584438 11.33588323 4.95584438 11.33588323 6 13 C4.02 13.99 4.02 13.99 2 15 C-1.42453429 10.60957142 -3.58221009 7.7097955 -4 2 C-2.68 1.34 -1.36 0.68 0 0 Z " fill="#EBECEC" transform="translate(7,37)"/>
<path d="M0 0 C3.68754757 0.49831724 5.60490662 1.10067643 8 4 C7.67 4.99 7.34 5.98 7 7 C6.34 7 5.68 7 5 7 C3.3553326 9.46326712 3.3553326 9.46326712 2 12 C-0.38346353 11.07736896 -1.70891888 10.54335142 -2.9375 8.25 C-3.02882333 4.96236023 -1.59648343 2.80981084 0 0 Z " fill="#CBCCCE" transform="translate(6,13)"/>
<path d="M0 0 C-0.66 1.98 -1.32 3.96 -2 6 C-1.34 6.66 -0.68 7.32 0 8 C-0.375 10.125 -0.375 10.125 -1 12 C-3.49361571 10.79618552 -5.68143083 9.54571278 -8 8 C-8 8.66 -8 9.32 -8 10 C-8.99 10.33 -9.98 10.66 -11 11 C-11 7 -11 7 -9.35546875 5.078125 C-8.64003906 4.47484375 -7.92460938 3.8715625 -7.1875 3.25 C-6.47980469 2.63640625 -5.77210937 2.0228125 -5.04296875 1.390625 C-3 0 -3 0 0 0 Z " fill="#B5B6B8" transform="translate(55,44)"/>
<path d="M0 0 C0.33 0.66 0.66 1.32 1 2 C1.99 2 2.98 2 4 2 C5.82421875 3.6796875 5.82421875 3.6796875 7.6875 5.875 C8.31011719 6.59429687 8.93273438 7.31359375 9.57421875 8.0546875 C11 10 11 10 11 12 C9.88625 11.690625 9.88625 11.690625 8.75 11.375 C5.62463243 10.94881351 4.67770324 11.52264649 2 13 C1.34 12.67 0.68 12.34 0 12 C0.66 10.02 1.32 8.04 2 6 C1.34 5.34 0.68 4.68 0 4 C0 2.68 0 1.36 0 0 Z " fill="#B7B8BA" transform="translate(10,42)"/>
<path d="M0 0 C2.39763185 2.39763185 2.34280586 3.33273498 2.625 6.625 C2.69976562 7.44226563 2.77453125 8.25953125 2.8515625 9.1015625 C2.92503906 10.04128906 2.92503906 10.04128906 3 11 C2.67 10.34 2.34 9.68 2 9 C0.68 9.33 -0.64 9.66 -2 10 C-4 7 -4 7 -3.8125 4.4375 C-3 2 -3 2 0 0 Z " fill="#E8E9E9" transform="translate(59,15)"/>
<path d="M0 0 C3.90186194 0.27222293 5.67844094 0.72330965 8.6875 3.3125 C14 9.48648649 14 9.48648649 14 12 C10.8731209 10.61867539 8.80079608 9.02096237 6.4375 6.5625 C5.85871094 5.96566406 5.27992187 5.36882813 4.68359375 4.75390625 C4.12800781 4.17511719 3.57242187 3.59632812 3 3 C2.0022753 1.99772986 1.00304412 0.99694659 0 0 Z " fill="#F8F8F8" transform="translate(6,5)"/>
<path d="M0 0 C0.33 0.66 0.66 1.32 1 2 C4.60992379 1.34414811 4.60992379 1.34414811 8 0 C6.51014431 3.79235994 4.41341953 5.80565887 1 8 C-1.3125 7.75 -1.3125 7.75 -3 7 C-3 3 -3 3 -1.5 1.25 C-1.005 0.8375 -0.51 0.425 0 0 Z " fill="#5D6064" transform="translate(9,52)"/>
<path d="M0 0 C1.0625 1.875 1.0625 1.875 2 4 C1.67 4.66 1.34 5.32 1 6 C0.01 6.33 -0.98 6.66 -2 7 C-3.22969878 10.51190809 -3.22969878 10.51190809 -4 14 C-4.33 14 -4.66 14 -5 14 C-5.33 9.71 -5.66 5.42 -6 1 C-4.35 1 -2.7 1 -1 1 C-0.67 0.67 -0.34 0.34 0 0 Z " fill="#C7C8CA" transform="translate(62,23)"/>
<path d="M0 0 C1.32 0.66 2.64 1.32 4 2 C3.60196439 4.88575819 3.20990931 5.82189513 0.9375 7.75 C0.298125 8.1625 -0.34125 8.575 -1 9 C-1.99 8.01 -2.98 7.02 -4 6 C-2.84826645 3.53199953 -1.95216435 1.95216435 0 0 Z " fill="#C4C6C7" transform="translate(45,41)"/>
<path d="M0 0 C2 1 4 2 6 3 C5.34 4.65 4.68 6.3 4 8 C1.13275314 7.42655063 0.1385485 7.1385485 -2 5 C-1.46428571 1.46428571 -1.46428571 1.46428571 0 0 Z " fill="#CFD0D1" transform="translate(18,41)"/>
<path d="M0 0 C2.33944736 0.28730055 4.6739143 0.61936779 7 1 C7 2.65 7 4.3 7 6 C4.36 6.33 1.72 6.66 -1 7 C-1.04254356 5.00045254 -1.04080783 2.99958364 -1 1 C-0.67 0.67 -0.34 0.34 0 0 Z " fill="#C5C6C8" transform="translate(27,28)"/>
<path d="M0 0 C1.98 0 3.96 0 6 0 C5.125 4.875 5.125 4.875 4 6 C2.33382885 6.04063832 0.66611905 6.042721 -1 6 C-0.67 4.02 -0.34 2.04 0 0 Z " fill="#AAABAE" transform="translate(43,31)"/>
<path d="M0 0 C0.70125 0.721875 1.4025 1.44375 2.125 2.1875 C4.92770745 4.99823813 7.92262792 7.49516226 11 10 C10.67 11.32 10.34 12.64 10 14 C9.01 13.67 8.02 13.34 7 13 C6.71125 12.21625 6.4225 11.4325 6.125 10.625 C5.21477899 7.77300609 5.21477899 7.77300609 2.375 6.5 C1.59125 6.005 0.8075 5.51 0 5 C-0.3125 2.3125 -0.3125 2.3125 0 0 Z " fill="#E3E3E4" transform="translate(7,8)"/>
<path d="M0 0 C1.32 0.66 2.64 1.32 4 2 C4 3.32 4 4.64 4 6 C2.68 6.33 1.36 6.66 0 7 C-0.99 5.68 -1.98 4.36 -3 3 C-2.01 2.01 -1.02 1.02 0 0 Z " fill="#7D8084" transform="translate(55,53)"/>
<path d="M0 0 C1.66611905 -0.042721 3.33382885 -0.04063832 5 0 C6 1 6 1 6.0625 3.5625 C6.041875 4.366875 6.02125 5.17125 6 6 C4.68 6.33 3.36 6.66 2 7 C0.5393715 4.35261084 0 3.10551666 0 0 Z " fill="#898B8E" transform="translate(16,31)"/>
<path d="M0 0 C4.95 0 9.9 0 15 0 C15.33 1.65 15.66 3.3 16 5 C10.72 3.68 5.44 2.36 0 1 C0 0.67 0 0.34 0 0 Z " fill="#E7E8E9" transform="translate(31,20)"/>
<path d="M0 0 C1.9451 2.91765 2.45276317 4.62537285 3 8 C3.99 7.67 4.98 7.34 6 7 C6 7.66 6 8.32 6 9 C2.71023192 10.09658936 1.28696233 9.79953138 -2 9 C-1.34 6.03 -0.68 3.06 0 0 Z " fill="#373839" transform="translate(28,20)"/>
<path d="M0 0 C3.22540929 0.58324395 4.9757611 1.52214798 7.3125 3.8125 C7.84488281 4.31394531 8.37726562 4.81539062 8.92578125 5.33203125 C10 7 10 7 9.66796875 9.19921875 C9.44753906 9.79347656 9.22710937 10.38773438 9 11 C8.401875 10.236875 7.80375 9.47375 7.1875 8.6875 C5.15995888 6.08664741 5.15995888 6.08664741 3.25 4.3125 C2 3 2 3 2 1 C1.34 0.67 0.68 0.34 0 0 Z " fill="#D1D3D4" transform="translate(12,6)"/>
<path d="M0 0 C1.32 0.33 2.64 0.66 4 1 C3.34 1 2.68 1 2 1 C2 1.66 2 2.32 2 3 C1.0246803 4.02408568 0.01801357 5.01834406 -1 6 C-2.34736973 7.65533995 -3.68334336 9.32012773 -5 11 C-5.68359375 9.234375 -5.68359375 9.234375 -6 7 C-4.78515625 5.078125 -4.78515625 5.078125 -3.0625 3.25 C-2.49660156 2.63640625 -1.93070313 2.0228125 -1.34765625 1.390625 C-0.90292969 0.93171875 -0.45820312 0.4728125 0 0 Z " fill="#D9DADB" transform="translate(49,6)"/>
<path d="M0 0 C1.1875 1.5625 1.1875 1.5625 2 4 C0.625 7.75 0.625 7.75 -1 11 C-2.32 11 -3.64 11 -5 11 C-4.731875 10.484375 -4.46375 9.96875 -4.1875 9.4375 C-2.67650593 6.33598585 -1.34427274 3.17737194 0 0 Z " fill="#0B0E12" transform="translate(49,31)"/>
<path d="M0 0 C3.875 1.75 3.875 1.75 5 4 C3.02 4.66 1.04 5.32 -1 6 C-1.66 5.34 -2.32 4.68 -3 4 C-2.67 3.34 -2.34 2.68 -2 2 C-1.34 2 -0.68 2 0 2 C0 1.34 0 0.68 0 0 Z " fill="#55575B" transform="translate(47,52)"/>
<path d="M0 0 C3.68754757 0.49831724 5.60490662 1.10067643 8 4 C7.67 4.99 7.34 5.98 7 7 C6.01 7 5.02 7 4 7 C3.566875 5.5459375 3.566875 5.5459375 3.125 4.0625 C2.35785318 0.89335797 2.35785318 0.89335797 0 0 Z " fill="#B4B6B8" transform="translate(6,13)"/>
<path d="M0 0 C0.66 0 1.32 0 2 0 C2.33 1.98 2.66 3.96 3 6 C1.68 5.67 0.36 5.34 -1 5 C-1 1 -1 1 0 0 Z " fill="#7E8084" transform="translate(7,54)"/>
<path d="M0 0 C0.99 0.66 1.98 1.32 3 2 C2.67 3.32 2.34 4.64 2 6 C0.68 5.34 -0.64 4.68 -2 4 C-2 3.01 -2 2.02 -2 1 C-1.34 0.67 -0.68 0.34 0 0 Z " fill="#ACAEB0" transform="translate(52,50)"/>
<path d="M0 0 C0.66 0 1.32 0 2 0 C2 0.66 2 1.32 2 2 C2.66 2.33 3.32 2.66 4 3 C2.02 5.97 2.02 5.97 0 9 C-0.66 8.67 -1.32 8.34 -2 8 C-1.67 7.236875 -1.34 6.47375 -1 5.6875 C0.17436686 3.00930865 0.17436686 3.00930865 0 0 Z " fill="#87898C" transform="translate(57,41)"/>
<path d="M0 0 C0.144375 0.61875 0.28875 1.2375 0.4375 1.875 C0.93152225 4.03258322 0.93152225 4.03258322 2 6 C1.34 6.66 0.68 7.32 0 8 C-0.99 7.01 -1.98 6.02 -3 5 C-1.125 1.125 -1.125 1.125 0 0 Z " fill="#3A3D40" transform="translate(55,45)"/>
<path d="M0 0 C0.99 0.66 1.98 1.32 3 2 C2.67 2.66 2.34 3.32 2 4 C-1.0625 4.625 -1.0625 4.625 -4 5 C-3.6875 3.0625 -3.6875 3.0625 -3 1 C-2.01 0.67 -1.02 0.34 0 0 Z " fill="#CDCED0" transform="translate(6,34)"/>
<path d="M0 0 C0.6875 1.75 0.6875 1.75 1 4 C-0.4375 6.25 -0.4375 6.25 -2 8 C-2.66 6.02 -3.32 4.04 -4 2 C-3.34 1.67 -2.68 1.34 -2 1 C-2 1.66 -2 2.32 -2 3 C-1.34 3 -0.68 3 0 3 C0 2.01 0 1.02 0 0 Z " fill="#252729" transform="translate(25,29)"/>
<path d="M0 0 C2 0.3125 2 0.3125 4 1 C4.33 1.66 4.66 2.32 5 3 C3.68 3.33 2.36 3.66 1 4 C1.33 4.66 1.66 5.32 2 6 C1.01 6.33 0.02 6.66 -1 7 C-1.04254356 5.00045254 -1.04080783 2.99958364 -1 1 C-0.67 0.67 -0.34 0.34 0 0 Z " fill="#AFB0B3" transform="translate(27,28)"/>
<path d="M0 0 C1.32 0.66 2.64 1.32 4 2 C4 2.99 4 3.98 4 5 C2.68 4.67 1.36 4.34 0 4 C0 2.68 0 1.36 0 0 Z " fill="#D6D7D9" transform="translate(45,41)"/>
<path d="M0 0 C0.33 0.99 0.66 1.98 1 3 C-0.65 4.32 -2.3 5.64 -4 7 C-4.66 5.68 -5.32 4.36 -6 3 C-5.38125 2.87625 -4.7625 2.7525 -4.125 2.625 C-1.80879168 2.12802644 -1.80879168 2.12802644 0 0 Z " fill="#080B10" transform="translate(53,18)"/>
<path d="M0 0 C-0.33 1.65 -0.66 3.3 -1 5 C-1.99 5.33 -2.98 5.66 -4 6 C-4.33 5.01 -4.66 4.02 -5 3 C-2.25 0 -2.25 0 0 0 Z " fill="#DFE0E1" transform="translate(57,11)"/>
<path d="M0 0 C1.65 0.33 3.3 0.66 5 1 C4.01 2.485 4.01 2.485 3 4 C1.68 3.67 0.36 3.34 -1 3 C-0.67 2.01 -0.34 1.02 0 0 Z " fill="#A6A8AA" transform="translate(11,51)"/>
<path d="M0 0 C0 0.99 0 1.98 0 3 C-2.64 3.33 -5.28 3.66 -8 4 C-6.4425489 0.88509781 -3.40085499 0 0 0 Z " fill="#9D9FA2" transform="translate(39,33)"/>
<path d="M0 0 C1.98 0 3.96 0 6 0 C6 0.33 6 0.66 6 1 C4.02 1 2.04 1 0 1 C0 0.67 0 0.34 0 0 Z " fill="#B9BBBC" transform="translate(5,2)"/>
<path d="M0 0 C0.33 0 0.66 0 1 0 C1 1.65 1 3.3 1 5 C0.67 5 0.34 5 0 5 C0 3.35 0 1.7 0 0 Z " fill="#A7A8AA" transform="translate(60,7)"/>
<path d="M0 0 C0.33 0 0.66 0 1 0 C1 1.65 1 3.3 1 5 C0.67 5 0.34 5 0 5 C0 3.35 0 1.7 0 0 Z " fill="#D1D2D3" transform="translate(4,7)"/>
<path d="M0 0 C1.65 0 3.3 0 5 0 C5 0.33 5 0.66 5 1 C3.35 1 1.7 1 0 1 C0 0.67 0 0.34 0 0 Z " fill="#BBBCBE" transform="translate(55,2)"/>
<path d="M0 0 C4 1 4 1 4 1 Z " fill="#9A9B9D" transform="translate(50,3)"/>
<path d="M0 0 C4 1 4 1 4 1 Z " fill="#9B9D9E" transform="translate(11,3)"/>
<path d="M0 0 C3 1 3 1 3 1 Z " fill="#7A7C7D" transform="translate(38,62)"/>
<path d="M0 0 C3 1 3 1 3 1 Z " fill="#ABACAD" transform="translate(23,62)"/>
<path d="M0 0 C3 1 3 1 3 1 Z " fill="#CECFCF" transform="translate(55,61)"/>
<path d="M0 0 C3 1 3 1 3 1 Z " fill="#ABACAD" transform="translate(41,61)"/>
<path d="M0 0 C3 1 3 1 3 1 Z " fill="#7A7C7D" transform="translate(20,61)"/>
<path d="M0 0 C3 1 3 1 3 1 Z " fill="#CECFCF" transform="translate(7,61)"/>
<path d="" fill="#F1F2F2" transform="translate(0,0)"/>
<path d="" fill="#ABACAE" transform="translate(0,0)"/>
<path d="" fill="#ABACAE" transform="translate(0,0)"/>
<path d="" fill="#E3E5E5" transform="translate(0,0)"/>
<path d="" fill="#F1F2F2" transform="translate(0,0)"/>
<path d="" fill="#7A7C7D" transform="translate(0,0)"/>
<path d="" fill="#ABACAD" transform="translate(0,0)"/>
<path d="M0 0 C2 1 2 1 2 1 Z " fill="#5E5E62" transform="translate(44,60)"/>
<path d="M0 0 C2 1 2 1 2 1 Z " fill="#CACACC" transform="translate(18,60)"/>
<path d="M0 0 C2 1 2 1 2 1 Z " fill="#939395" transform="translate(46,59)"/>
<path d="M0 0 C2 1 2 1 2 1 Z " fill="#818384" transform="translate(16,59)"/>
<path d="M0 0 C2 1 2 1 2 1 Z " fill="#4A4B4E" transform="translate(48,58)"/>
<path d="" fill="#B6B7B7" transform="translate(0,0)"/>
<path d="M0 0 C2 1 2 1 2 1 Z " fill="#5E5E62" transform="translate(50,57)"/>
<path d="M0 0 C2 1 2 1 2 1 Z " fill="#4A4B4E" transform="translate(13,57)"/>
<path d="" fill="#B6B7B7" transform="translate(0,0)"/>
<path d="" fill="#5E5E62" transform="translate(0,0)"/>
<path d="" fill="#5E5E62" transform="translate(0,0)"/>
<path d="" fill="#818384" transform="translate(0,0)"/>
<path d="" fill="#CACACC" transform="translate(0,0)"/>
<path d="" fill="#818384" transform="translate(0,0)"/>
<path d="" fill="#EAEBEC" transform="translate(0,0)"/>
<path d="" fill="#CACACC" transform="translate(0,0)"/>
<path d="" fill="#CACACC" transform="translate(0,0)"/>
<path d="" fill="#D6D8D9" transform="translate(0,0)"/>
<path d="" fill="#818384" transform="translate(0,0)"/>
<path d="" fill="#D6D8D9" transform="translate(0,0)"/>
<path d="" fill="#D6D8D9" transform="translate(0,0)"/>
<path d="" fill="#A1A4A4" transform="translate(0,0)"/>
<path d="" fill="#D6D8D9" transform="translate(0,0)"/>
<path d="" fill="#5E5E62" transform="translate(0,0)"/>
<path d="" fill="#CACACC" transform="translate(0,0)"/>
<path d="M0 0 C2 1 2 1 2 1 Z " fill="#818384" transform="translate(48,2)"/>
<path d="M0 0 C2 1 2 1 2 1 Z " fill="#A1A4A4" transform="translate(15,2)"/>
<path d="M0 0 C2 1 2 1 2 1 Z " fill="#CACACC" transform="translate(46,1)"/>
<path d="M0 0 C2 1 2 1 2 1 Z " fill="#A1A4A4" transform="translate(17,1)"/>
<path d="M0 0 C2 1 2 1 2 1 Z " fill="#CACACC" transform="translate(44,0)"/>
<path d="M0 0 C2 1 2 1 2 1 Z " fill="#818384" transform="translate(19,0)"/>
<path d="" fill="#6D7070" transform="translate(0,0)"/>
<path d="" fill="#6D7070" transform="translate(0,0)"/>
<path d="" fill="#6D7070" transform="translate(0,0)"/>
<path d="" fill="#6D7070" transform="translate(0,0)"/>
<path d="" fill="#969699" transform="translate(0,0)"/>
<path d="" fill="#969699" transform="translate(0,0)"/>
<path d="" fill="#969699" transform="translate(0,0)"/>
<path d="" fill="#969699" transform="translate(0,0)"/>
<path d="" fill="#6D7070" transform="translate(0,0)"/>
<path d="" fill="#969699" transform="translate(0,0)"/>
<path d="" fill="#969699" transform="translate(0,0)"/>
<path d="" fill="#969699" transform="translate(0,0)"/>
<path d="" fill="#6D7070" transform="translate(0,0)"/>
<path d="" fill="#6D7070" transform="translate(0,0)"/>
<path d="" fill="#6D7070" transform="translate(0,0)"/>
<path d="" fill="#969699" transform="translate(0,0)"/>
<path d="" fill="#D6D8D9" transform="translate(0,0)"/>
<path d="" fill="#969699" transform="translate(0,0)"/>
<path d="" fill="#969699" transform="translate(0,0)"/>
<path d="" fill="#969699" transform="translate(0,0)"/>
<path d="" fill="#969699" transform="translate(0,0)"/>
<path d="" fill="#969699" transform="translate(0,0)"/>
<path d="" fill="#27272C" transform="translate(0,0)"/>
<path d="" fill="#D6D8D9" transform="translate(0,0)"/>
<path d="" fill="#FFFFFF" transform="translate(0,0)"/>
<path d="" fill="#FFFFFF" transform="translate(0,0)"/>
</svg>
